<svg width="128" height="128" viewBox="0 0 128 128" fill="none" xmlns="http://www.w3.org/2000/svg">
<g clip-path="url(#clip0_2005_3)">
<rect width="128" height="128" fill="#54428E"/>
<circle cx="64" cy="64" r="58.902" fill="url(#paint0_linear_2005_3)"/>
<g filter="url(#filter0_d_2005_3)">
<path d="M64 5.09796C31.4713 5.09796 5.09796 31.4713 5.09796 64C5.09796 96.5286 31.4713 122.902 64 122.902C96.5286 122.902 122.902 96.5286 122.902 64C122.902 31.4713 96.5286 5.09796 64 5.09796ZM65.5315 116.889C35.3294 116.889 10.8409 92.4055 10.8409 62.1986C10.8409 31.9917 35.3343 7.50804 65.5315 7.50804C95.7384 7.50804 120.222 31.9966 120.222 62.1986C120.222 92.4006 95.7384 116.889 65.5315 116.889ZM68.6876 16.4415C57.5089 16.4415 46.7881 20.8822 38.8836 28.7868C30.979 36.6913 26.5383 47.4121 26.5383 58.5908C26.5383 69.7695 30.979 80.4904 38.8836 88.3949C46.7881 96.2994 57.5089 100.74 68.6876 100.74C79.8663 100.74 90.5872 96.2994 98.4917 88.3949C106.396 80.4904 110.837 69.7695 110.837 58.5908C110.837 47.4121 106.396 36.6913 98.4917 28.7868C90.5872 20.8822 79.8663 16.4415 68.6876 16.4415ZM63.2245 91.3305C56.0423 91.3305 49.1544 88.4775 44.0759 83.3989C38.9973 78.3204 36.1442 71.4324 36.1442 64.2503C36.1442 57.0682 38.9973 50.1803 44.0759 45.1017C49.1544 40.0232 56.0423 37.1701 63.2245 37.1701C70.4066 37.1701 77.2945 40.0232 82.3731 45.1017C87.4516 50.1803 90.3047 57.0682 90.3047 64.2503C90.3047 71.4324 87.4516 78.3204 82.3731 83.3989C77.2945 88.4775 70.4066 91.3305 63.2245 91.3305ZM56.3575 52.0871L75.7804 63.8527L56.3575 76.2124V52.0871Z" fill="black" fill-opacity="0.09" shape-rendering="crispEdges"/>
</g>
<g filter="url(#filter1_d_2005_3)">
<path d="M102.169 62.5958C103.425 63.3213 103.425 65.135 102.169 65.8605L41.3816 100.956C40.125 101.681 38.5543 100.774 38.5543 99.3235L38.5543 29.1328C38.5543 27.6818 40.125 26.775 41.3816 27.5005L102.169 62.5958Z" fill="#8963BA"/>
</g>
<path d="M60.0896 48.7777C58.5579 49.1182 57.0427 49.5923 55.6221 50.3074C55.6545 51.5617 55.7356 52.7637 55.9 53.9845C55.3483 54.338 54.7685 54.6413 54.2532 55.0551C53.7297 55.4579 53.1949 55.8432 52.7208 56.3143C51.7737 55.6879 50.7713 55.0992 49.7386 54.5795C48.6255 55.7775 47.5846 57.0705 46.7344 58.5174C47.4026 59.5663 48.1193 60.6205 48.7831 61.4427V68.5891V69.4968V70.3229C48.7993 70.323 48.8155 70.3236 48.8316 70.3251L54.2758 70.8501C54.5609 70.8776 54.7844 71.1071 54.8043 71.3929L54.9722 73.7961L59.7211 74.135L60.0483 71.9169C60.0907 71.6293 60.3373 71.4162 60.6282 71.4162H66.3719C66.6627 71.4162 66.9093 71.6293 66.9517 71.9169L67.2789 74.135L72.028 73.7961L72.1957 71.3929C72.2157 71.1071 72.4391 70.8777 72.7242 70.8501L78.1663 70.3251C78.1823 70.3236 78.1984 70.323 78.2147 70.3229V69.6143L78.2169 69.6136V61.4427C78.9835 60.4776 79.7095 59.4131 80.2656 58.5174C79.4157 57.0705 78.3743 55.7775 77.2611 54.5795C76.2287 55.0992 75.2259 55.6879 74.2788 56.3143C73.8049 55.8432 73.2711 55.4579 72.7468 55.0551C72.2316 54.6413 71.6511 54.338 71.1005 53.9845C71.2644 52.7637 71.3454 51.5617 71.3781 50.3074C69.9573 49.5923 68.4423 49.1182 66.9098 48.7777C66.298 49.806 65.7384 50.9196 65.2511 52.0083C64.6732 51.9117 64.0927 51.876 63.5114 51.869V51.8681C63.5073 51.8681 63.5035 51.869 63.5001 51.869C63.4965 51.869 63.4927 51.8681 63.4891 51.8681V51.869C62.9067 51.876 62.3266 51.9117 61.7486 52.0083C61.2616 50.9196 60.7024 49.806 60.0896 48.7777ZM55.7826 61.7683C57.5947 61.7683 59.0634 63.2359 59.0634 65.0474C59.0634 66.8601 57.5947 68.3286 55.7826 68.3286C53.9714 68.3286 52.5022 66.8601 52.5022 65.0474C52.5022 63.2359 53.9714 61.7683 55.7826 61.7683ZM71.2177 61.7683C73.0288 61.7683 74.4979 63.2359 74.4979 65.0474C74.4979 66.8601 73.0288 68.3286 71.2177 68.3286C69.4053 68.3286 67.9366 66.8601 67.9366 65.0474C67.9366 63.2359 69.4053 61.7683 71.2177 61.7683ZM63.4998 63.6873C64.0831 63.6873 64.5568 64.1176 64.5568 64.647V67.6673C64.5568 68.1972 64.0831 68.6271 63.4998 68.6271C62.9165 68.6271 62.4438 68.1972 62.4438 67.6673V64.647C62.4438 64.1176 62.9165 63.6873 63.4998 63.6873Z" fill="white"/>
<path d="M73.3307 71.9695L73.1621 74.3855C73.1418 74.6767 72.9102 74.9084 72.619 74.9293L66.82 75.3431C66.8059 75.3442 66.7918 75.3446 66.7778 75.3446C66.4896 75.3446 66.241 75.1331 66.1984 74.8438L65.8659 72.5886H61.1342L60.8017 74.8438C60.757 75.1473 60.4857 75.3655 60.18 75.3431L54.3811 74.9293C54.0899 74.9084 53.8583 74.6767 53.838 74.3855L53.6694 71.9695L48.7741 71.4975C48.7763 72.0236 48.7831 72.6 48.7831 72.7148C48.7831 77.8848 55.3416 80.3699 63.49 80.3984H63.5H63.51C71.6585 80.3699 78.2147 77.8848 78.2147 72.7148C78.2147 72.5979 78.2218 72.0239 78.2242 71.4975L73.3307 71.9695Z" fill="white"/>
<path d="M58.274 65.2421C58.274 66.4444 57.2995 67.4189 56.0963 67.4189C54.8936 67.4189 53.9185 66.4444 53.9185 65.2421C53.9185 64.0397 54.8936 63.0643 56.0963 63.0643C57.2995 63.0643 58.274 64.0397 58.274 65.2421Z" fill="white"/>
<path d="M68.7263 65.2421C68.7263 66.4444 69.7005 67.4189 70.9028 67.4189C72.1064 67.4189 73.0806 66.4444 73.0806 65.2421C73.0806 64.0397 72.1064 63.0643 70.9028 63.0643C69.7005 63.0643 68.7263 64.0397 68.7263 65.2421Z" fill="white"/>
</g>
<defs>
<filter id="filter0_d_2005_3" x="1.09796" y="5.09796" width="125.804" height="125.804" filterUnits="userSpaceOnUse" color-interpolation-filters="sRGB">
<feFlood flood-opacity="0" result="BackgroundImageFix"/>
<feColorMatrix in="SourceAlpha" type="matrix" values="0 0 0 0 0 0 0 0 0 0 0 0 0 0 0 0 0 0 127 0" result="hardAlpha"/>
<feOffset dy="4"/>
<feGaussianBlur stdDeviation="2"/>
<feComposite in2="hardAlpha" operator="out"/>
<feColorMatrix type="matrix" values="0 0 0 0 0 0 0 0 0 0 0 0 0 0 0 0 0 0 0.25 0"/>
<feBlend mode="normal" in2="BackgroundImageFix" result="effect1_dropShadow_2005_3"/>
<feBlend mode="normal" in="SourceGraphic" in2="effect1_dropShadow_2005_3" result="shape"/>
</filter>
<filter id="filter1_d_2005_3" x="34.5543" y="27.2451" width="72.5566" height="81.966" filterUnits="userSpaceOnUse" color-interpolation-filters="sRGB">
<feFlood flood-opacity="0" result="BackgroundImageFix"/>
<feColorMatrix in="SourceAlpha" type="matrix" values="0 0 0 0 0 0 0 0 0 0 0 0 0 0 0 0 0 0 127 0" result="hardAlpha"/>
<feOffset dy="4"/>
<feGaussianBlur stdDeviation="2"/>
<feComposite in2="hardAlpha" operator="out"/>
<feColorMatrix type="matrix" values="0 0 0 0 0 0 0 0 0 0 0 0 0 0 0 0 0 0 0.25 0"/>
<feBlend mode="normal" in2="BackgroundImageFix" result="effect1_dropShadow_2005_3"/>
<feBlend mode="normal" in="SourceGraphic" in2="effect1_dropShadow_2005_3" result="shape"/>
</filter>
<linearGradient id="paint0_linear_2005_3" x1="106.174" y1="21.5905" x2="24.4178" y2="105.703" gradientUnits="userSpaceOnUse">
<stop stop-color="#F8F2F2"/>
<stop offset="1" stop-color="#B1A8A8"/>
</linearGradient>
<clipPath id="clip0_2005_3">
<rect width="128" height="128" fill="white"/>
</clipPath>
</defs>
</svg>
